<svg id="Слой_1" data-name="Слой 1" xmlns="http://www.w3.org/2000/svg" xmlns:xlink="http://www.w3.org/1999/xlink" viewBox="0 0 503.81 130"><defs><style>.cls-1{fill:#f2f2f2;}.cls-2{fill:url(#Безымянный_градиент_27);}</style><linearGradient id="Безымянный_градиент_27" x1="109.15" y1="180.15" x2="184.85" y2="255.85" gradientUnits="userSpaceOnUse"><stop offset="0" stop-color="#bb83bc"/><stop offset="0.51" stop-color="#5351c9"/><stop offset="1" stop-color="#0f6"/></linearGradient></defs><path class="cls-1" d="M196.13,198H167.07a.07.07,0,0,1-.07-.07V168.87A15.88,15.88,0,0,0,151.13,153h-8.26A15.88,15.88,0,0,0,127,168.87v29.06a.07.07,0,0,1-.07.07H97.87A15.88,15.88,0,0,0,82,213.87v8.26A15.88,15.88,0,0,0,97.87,238h29.06a.07.07,0,0,1,.07.07v29.06A15.88,15.88,0,0,0,142.87,283h8.26A15.88,15.88,0,0,0,167,267.13V238.07a.07.07,0,0,1,.07-.07h29.06A15.88,15.88,0,0,0,212,222.13v-8.26A15.88,15.88,0,0,0,196.13,198Z" transform="translate(-82 -153)"/><path class="cls-2" d="M151.13,163a5.87,5.87,0,0,1,5.87,5.87v29.06A10.08,10.08,0,0,0,167.07,208h29.06a5.87,5.87,0,0,1,5.87,5.87v8.26a5.87,5.87,0,0,1-5.87,5.87H167.07A10.08,10.08,0,0,0,157,238.07v29.06a5.87,5.87,0,0,1-5.87,5.87h-8.26a5.87,5.87,0,0,1-5.87-5.87V238.07A10.08,10.08,0,0,0,126.93,228H97.87A5.87,5.87,0,0,1,92,222.13v-8.26A5.87,5.87,0,0,1,97.87,208h29.06A10.08,10.08,0,0,0,137,197.93V168.87a5.87,5.87,0,0,1,5.87-5.87h8.26m0-10h-8.26A15.88,15.88,0,0,0,127,168.87v29.06a.07.07,0,0,1-.07.07H97.87A15.88,15.88,0,0,0,82,213.87v8.26A15.88,15.88,0,0,0,97.87,238h29.06a.07.07,0,0,1,.07.07v29.06A15.88,15.88,0,0,0,142.87,283h8.26A15.88,15.88,0,0,0,167,267.13V238.07a.07.07,0,0,1,.07-.07h29.06A15.88,15.88,0,0,0,212,222.13v-8.26A15.88,15.88,0,0,0,196.13,198H167.07a.07.07,0,0,1-.07-.07V168.87A15.88,15.88,0,0,0,151.13,153Z" transform="translate(-82 -153)"/><path class="cls-1" d="M253.56,170.47h7.82V218h-7.82Zm3.27,0h27.32V178H256.83Zm0,20.65h23.72v7.46H256.83Z" transform="translate(-82 -153)"/><path class="cls-1" d="M298.18,208.06a2.71,2.71,0,0,0,.63,1.92,2.3,2.3,0,0,0,1.76.67h2.33v7.49h-4.26a7.9,7.9,0,0,1-6.1-2.36,9.42,9.42,0,0,1-2.17-6.64V170.47h7.81Z" transform="translate(-82 -153)"/><path class="cls-1" d="M315.79,216.77a12,12,0,0,1-5.21-5.19,17.53,17.53,0,0,1-1.8-8.26v-3.83a19.74,19.74,0,0,1,1.72-8.6,12.12,12.12,0,0,1,5-5.43,15.68,15.68,0,0,1,7.9-1.87,12.6,12.6,0,0,1,7.44,2.18,13.46,13.46,0,0,1,4.71,6.3,27.16,27.16,0,0,1,1.62,9.94v2.23H314.12v-5.73h15.8l0-.36a9.75,9.75,0,0,0-2-5.53,5.58,5.58,0,0,0-4.48-2,6.86,6.86,0,0,0-5.47,2.21,9.25,9.25,0,0,0-1.93,6.26v4.32a7.28,7.28,0,0,0,8,8,10.45,10.45,0,0,0,3.81-.74,11.33,11.33,0,0,0,3.38-2l5.11,4.78a19.11,19.11,0,0,1-5.81,3.75,17,17,0,0,1-6.49,1.32A17.69,17.69,0,0,1,315.79,216.77Z" transform="translate(-82 -153)"/><path class="cls-1" d="M353.87,199.3l4.25,6.15L349.87,218h-8.44Zm.91,4L342,184.08h8.63l9,14.46L372.64,218H364Zm1.83-7.17,6.87-12h8.64L360.64,202.4Z" transform="translate(-82 -153)"/><path class="cls-1" d="M378,210.06h8v8h-8Z" transform="translate(-82 -153)"/><path class="cls-1" d="M395.18,170.47H403V218h-7.82ZM399,192.1h15.21a6.25,6.25,0,0,0,3.32-.87,5.86,5.86,0,0,0,2.22-2.47,8.09,8.09,0,0,0,.8-3.7,8.46,8.46,0,0,0-.78-3.73,5.94,5.94,0,0,0-2.22-2.48,6.26,6.26,0,0,0-3.34-.88H399v-7.5h15a15.62,15.62,0,0,1,7.65,1.82,12.79,12.79,0,0,1,5.14,5.12,16.88,16.88,0,0,1,0,15.29,12.66,12.66,0,0,1-5.14,5.09,15.72,15.72,0,0,1-7.65,1.8H399Z" transform="translate(-82 -153)"/><path class="cls-1" d="M436.24,170.47h7.82V218h-7.82Zm20.12,27a6.46,6.46,0,0,0-1.64-4.71,6.22,6.22,0,0,0-4.64-1.67,6.12,6.12,0,0,0-4.45,1.54,5.81,5.81,0,0,0-1.57,4.35l-.69-7a12.34,12.34,0,0,1,3.88-4.71,9.39,9.39,0,0,1,5.51-1.64,10.35,10.35,0,0,1,8.43,3.62q3,3.61,3,10.22V218h-7.82Z" transform="translate(-82 -153)"/><path class="cls-1" d="M474.94,215.93C473,214.2,472,211.56,472,208q0-5,2.94-7.56c2-1.68,4.91-2.52,8.84-2.52h9.09l.46,6.09h-9.52a5.29,5.29,0,0,0-3.48,1,3.71,3.71,0,0,0-1.17,3,3.58,3.58,0,0,0,1.51,3.16,8.16,8.16,0,0,0,4.55,1,14.11,14.11,0,0,0,5.54-.82,2.7,2.7,0,0,0,1.82-2.55l.68,4.84a5.66,5.66,0,0,1-1.94,2.68A9.59,9.59,0,0,1,488,218a16.15,16.15,0,0,1-4.29.54C479.8,218.53,476.88,217.67,474.94,215.93Zm17.67-19.42a5.72,5.72,0,0,0-1.69-4.41,6.7,6.7,0,0,0-4.76-1.57,12.47,12.47,0,0,0-3.86.62,11.85,11.85,0,0,0-3.4,1.73l-5.2-4.38a13.25,13.25,0,0,1,5.23-3.62,19.31,19.31,0,0,1,7.2-1.29,16.85,16.85,0,0,1,7.39,1.49,10.54,10.54,0,0,1,4.7,4.32,13.52,13.52,0,0,1,1.62,6.82V218h-7.23Z" transform="translate(-82 -153)"/><path class="cls-1" d="M509.33,184.08h8.14v34h-8.14Zm17,7.45a7.18,7.18,0,0,0-2.65-.45,5.93,5.93,0,0,0-4.56,1.75,6.89,6.89,0,0,0-1.62,4.86l-.69-7.69a12.23,12.23,0,0,1,3.85-4.72,8.77,8.77,0,0,1,5.22-1.69,11.61,11.61,0,0,1,4,.67,8.92,8.92,0,0,1,3.14,2l-4.78,6.58A4.9,4.9,0,0,0,526.3,191.53Z" transform="translate(-82 -153)"/><path class="cls-1" d="M537.92,184.08h7.82v34h-7.82ZM558,198a7.29,7.29,0,0,0-1.62-5.08,5.89,5.89,0,0,0-4.59-1.79,6,6,0,0,0-4.45,1.56,5.89,5.89,0,0,0-1.57,4.4l-.69-7a12.17,12.17,0,0,1,3.93-4.76,9.36,9.36,0,0,1,5.46-1.65,11,11,0,0,1,6.12,1.67,10.29,10.29,0,0,1,3.87,4.89,20.29,20.29,0,0,1,1.33,7.77V218H558Zm20,0a7.25,7.25,0,0,0-1.63-5.08,6,6,0,0,0-4.65-1.79,5.66,5.66,0,0,0-4.4,1.72,7.08,7.08,0,0,0-1.55,4.89l-1.51-7.19a12.8,12.8,0,0,1,4.21-5.11,9.91,9.91,0,0,1,5.77-1.8,11.42,11.42,0,0,1,6.27,1.67,10.45,10.45,0,0,1,4,4.89,20.09,20.09,0,0,1,1.35,7.77V218H578Z" transform="translate(-82 -153)"/><path class="cls-1" d="M257.15,266.33a10.66,10.66,0,0,1-4.16-4.45,14.51,14.51,0,0,1-1.47-6.68v-9.35a14.51,14.51,0,0,1,1.47-6.68,10.83,10.83,0,0,1,4.16-4.47,12.81,12.81,0,0,1,11.62-.36,11.18,11.18,0,0,1,4.11,3.47,12.9,12.9,0,0,1,2.24,5.2H271a8.53,8.53,0,0,0-1.67-3.13,8.29,8.29,0,0,0-2.72-2.12,7.37,7.37,0,0,0-3.22-.75,7.49,7.49,0,0,0-4.07,1.1,7.32,7.32,0,0,0-2.71,3.1,10.57,10.57,0,0,0-1,4.64v9.35a10.61,10.61,0,0,0,1,4.63,7.12,7.12,0,0,0,2.71,3.09,7.48,7.48,0,0,0,4.07,1.09,7.7,7.7,0,0,0,3.23-.7,7.92,7.92,0,0,0,2.71-2.06A8.33,8.33,0,0,0,271,258h4.13a12.82,12.82,0,0,1-2.25,5.21,11.29,11.29,0,0,1-4.13,3.46,11.82,11.82,0,0,1-5.36,1.22A12.09,12.09,0,0,1,257.15,266.33Z" transform="translate(-82 -153)"/><path class="cls-1" d="M285.64,266.63A8.57,8.57,0,0,1,282,262.9a12.76,12.76,0,0,1-1.26-5.9v-2.74A14.25,14.25,0,0,1,282,248.1a8.62,8.62,0,0,1,3.5-3.89,10.84,10.84,0,0,1,5.53-1.34,9.23,9.23,0,0,1,5.21,1.42,9,9,0,0,1,3.29,4.11,16.65,16.65,0,0,1,1.14,6.5v2.18h-17v-3.43h13.15v-.11a8.12,8.12,0,0,0-1.6-5.12A5.13,5.13,0,0,0,291,246.6a5.9,5.9,0,0,0-4.73,1.93,8.15,8.15,0,0,0-1.66,5.47v3.1a7,7,0,0,0,1.78,5.15,6.72,6.72,0,0,0,5,1.81,8.2,8.2,0,0,0,3.11-.64,8.73,8.73,0,0,0,2.75-1.82l2.71,2.67a12.74,12.74,0,0,1-4,2.68,11.45,11.45,0,0,1-4.54.95A12.11,12.11,0,0,1,285.64,266.63Z" transform="translate(-82 -153)"/><path class="cls-1" d="M304.13,243.22H323V247H304.13Zm7.41,2h4.08v22.36h-4.08Z" transform="translate(-82 -153)"/><path class="cls-1" d="M329.35,243.22h4.08v24.33h-4.08Zm2.09,20.49h8.34a3.82,3.82,0,0,0,2.84-1.1,4,4,0,0,0,1.08-2.93,4.42,4.42,0,0,0-.49-2.14,3.35,3.35,0,0,0-1.38-1.41,4.08,4.08,0,0,0-2.05-.51h-8.34v-3.84h8.15a9.64,9.64,0,0,1,4.43,1,7.28,7.28,0,0,1,3,2.77,8.56,8.56,0,0,1,0,8.27,7.17,7.17,0,0,1-3,2.77,9.73,9.73,0,0,1-4.46,1h-8.15Z" transform="translate(-82 -153)"/><path class="cls-1" d="M368.76,266a6.91,6.91,0,0,1-2.28-5.6,6.82,6.82,0,0,1,2.09-5.37,9,9,0,0,1,6.11-1.85h7.5l.33,3.49H374.7a4.82,4.82,0,0,0-3.21,1,3.49,3.49,0,0,0-1.1,2.78,3.43,3.43,0,0,0,1.42,3,7.11,7.11,0,0,0,4.14,1,12.62,12.62,0,0,0,4.48-.61c1-.4,1.54-1,1.54-1.8l.49,3.3a5.84,5.84,0,0,1-1.71,1.47,8,8,0,0,1-2.37.89,13.47,13.47,0,0,1-2.95.29Q371,267.9,368.76,266ZM382,252.13a5.75,5.75,0,0,0-1.43-4.15,5.41,5.41,0,0,0-4.06-1.48,9.81,9.81,0,0,0-3.12.51,8.63,8.63,0,0,0-2.71,1.42l-3-2a9.14,9.14,0,0,1,3.65-2.59,13.05,13.05,0,0,1,5-.93,11.56,11.56,0,0,1,5.18,1.07A7.38,7.38,0,0,1,384.8,247a9.93,9.93,0,0,1,1.13,4.89v15.63h-4Z" transform="translate(-82 -153)"/><path class="cls-1" d="M393.2,243.22h4.07v24.33H393.2Zm2.5,0h15.87v3.85H395.7Zm13.57,0h4.08v24.33h-4.08Z" transform="translate(-82 -153)"/><path class="cls-1" d="M418,243.22h18.89V247H418Zm7.41,2h4.07v22.36h-4.07Z" transform="translate(-82 -153)"/><path class="cls-1" d="M445.81,266.63a8.57,8.57,0,0,1-3.64-3.73,12.76,12.76,0,0,1-1.26-5.9v-2.74a14.4,14.4,0,0,1,1.21-6.16,8.67,8.67,0,0,1,3.5-3.89,10.88,10.88,0,0,1,5.54-1.34,9.22,9.22,0,0,1,5.2,1.42,8.94,8.94,0,0,1,3.29,4.11,16.65,16.65,0,0,1,1.14,6.5v2.18h-17v-3.43H457v-.11a8.18,8.18,0,0,0-1.61-5.12,5.12,5.12,0,0,0-4.18-1.82,5.91,5.91,0,0,0-4.74,1.93,8.15,8.15,0,0,0-1.66,5.47v3.1a7,7,0,0,0,1.78,5.15,6.75,6.75,0,0,0,5,1.81,8.29,8.29,0,0,0,3.12-.64,8.69,8.69,0,0,0,2.74-1.82l2.72,2.67a12.89,12.89,0,0,1-4,2.68,11.45,11.45,0,0,1-4.54.95A12.14,12.14,0,0,1,445.81,266.63Z" transform="translate(-82 -153)"/><path class="cls-1" d="M467.35,243.22h4.08v24.33h-4.08Zm2.32,10.22h8.79v3.82h-8.79Zm5.18.38,7.15-10.6h4.88l-10,14.3Zm.12,3.09,3.28-2.11,10.05,12.75H483Z" transform="translate(-82 -153)"/></svg>